<svg width="1280" height="1280" viewBox="0 0 1280 1280" fill="none" xmlns="http://www.w3.org/2000/svg">
<circle cx="640" cy="640" r="380.5" fill="white" stroke="#006AA8" stroke-width="33"/>
<path d="M1152.1 409.493C1190.71 495.274 1207.13 589.318 1199.94 682.98L1198.79 682.866C1205.96 589.405 1189.58 495.564 1151.05 409.967C1112.52 324.37 1053.14 249.884 978.42 193.281L979.097 192.345C1053.98 249.067 1113.49 323.712 1152.1 409.493ZM1016.7 1054.95C1086.2 991.858 1138.69 912.364 1169.43 823.813L1170.53 824.168C1139.73 912.911 1087.12 992.577 1017.47 1055.81C947.822 1119.04 863.455 1163.71 772.155 1185.82L771.908 1184.69C863.011 1162.63 947.195 1118.05 1016.7 1054.95ZM579.023 81.7319C672.537 71.5178 767.051 84.9646 853.908 120.746L853.445 121.804C766.773 86.1036 672.462 72.6879 579.149 82.88C485.835 93.0722 396.644 126.531 319.723 180.1L319.042 179.167C396.126 125.479 485.509 91.946 579.023 81.7319ZM629.765 1200.34L629.77 1201.5C535.847 1199.78 443.781 1174.54 362.041 1127.98C280.301 1081.42 211.626 1015.1 162.249 935.188L163.245 934.602C212.519 1014.34 281.048 1080.51 362.613 1126.97C444.177 1173.43 536.044 1198.63 629.765 1200.34ZM90.2126 525.478C109.396 433.384 151.391 347.652 212.261 276.103L213.124 276.871C152.388 348.268 110.485 433.818 91.3433 525.714C72.2012 617.609 76.4608 712.775 103.638 802.485L102.54 802.844C75.3002 712.942 71.0293 617.572 90.2126 525.478Z" fill="#006AA8" stroke="#006AA8" stroke-width="24.8233"/>
<path d="M607.045 243.82C501.578 253.437 406.027 302.524 338.72 381.463C292.947 435.158 263.4 496.266 250.079 564.286C240.164 615.276 240.664 671.175 251.582 722.165C258.893 756.525 268.408 783.573 284.534 816.231C364.561 977.616 542.643 1064.87 719.223 1029.01C822.787 1007.97 914.132 945.659 972.525 856.402C1027.91 771.652 1048.75 668.67 1030.62 568.894C1017.8 497.869 985.546 431.552 937.369 376.955C902.814 337.786 863.452 307.633 816.377 284.291C774.511 263.555 736.05 251.834 689.676 245.723C670.947 243.219 624.974 242.117 607.045 243.82ZM683.166 277.179C729.439 283.39 766.098 294.61 805.861 314.946C830.099 327.267 856.341 344.698 874.77 360.726L880.98 366.136L878.776 370.143C876.773 373.649 875.471 374.551 868.46 377.155C863.151 379.159 859.145 381.463 856.641 383.967C852.935 387.474 852.835 387.874 853.436 392.182C854.137 396.59 854.237 396.69 858.644 397.592C862.951 398.493 863.252 398.693 865.555 404.404C866.857 407.709 868.159 410.514 868.36 410.715C868.56 410.915 871.264 410.013 874.369 408.611C883.484 404.504 883.183 404.404 884.585 414.021C885.286 418.729 885.587 422.736 885.387 422.936C885.086 423.237 881.18 422.936 876.573 422.335C868.36 421.333 858.344 422.235 855.239 424.339C854.538 424.74 851.433 428.847 848.328 433.355C845.123 437.863 842.519 441.669 842.318 441.87C842.118 442.17 825.291 445.075 823.789 445.075C823.288 445.075 820.884 457.297 820.884 460.002C820.884 460.503 822.387 461.304 824.19 461.605C825.892 462.005 827.695 462.506 827.996 462.707C828.797 463.207 826.994 471.222 825.792 472.524C825.392 473.025 821.185 472.624 816.077 471.622C807.463 470.019 806.662 470.019 798.849 471.722L790.536 473.425L788.633 477.933C786.83 481.941 786.73 483.042 787.832 490.956C789.435 502.777 789.234 502.477 794.342 504.981C798.249 506.885 800.652 507.185 810.268 507.185C826.393 507.185 827.395 506.885 829.398 501.575C831.101 497.067 848.228 474.127 849.93 474.127C850.431 474.127 853.035 474.628 855.84 475.329L860.848 476.431L872.466 465.812L873.768 470.22C874.97 474.427 875.771 475.128 888.592 483.543C896.004 488.452 902.314 492.86 902.614 493.361C902.914 493.862 902.414 495.164 901.412 496.266C900.11 497.768 898.407 498.169 893.8 498.169H887.891L889.693 501.174C892.398 505.783 898.407 506.784 905.218 503.779L908.924 502.176L908.323 497.067C907.822 492.459 908.023 491.658 909.926 490.255C912.029 488.652 912.029 488.452 910.426 487.05C909.525 486.248 904.617 483.343 899.609 480.538L890.495 475.429L885.286 461.605L900.911 461.004L910.326 469.218L919.741 477.332L920.342 484.946L920.943 492.459L927.754 499.371L934.565 506.183L936.868 496.967C938.17 491.858 939.673 487.05 940.374 486.348C941.676 484.745 949.088 480.839 949.689 481.44C949.889 481.64 950.39 485.347 950.79 489.654C951.391 497.167 951.592 497.768 955.999 502.777L960.606 507.987L970.622 508.287L980.638 508.688L984.344 519.206C986.347 525.017 988.049 530.326 988.049 530.927C988.15 531.929 983.643 532.229 968.819 532.229H949.488L945.282 529.124C941.075 526.018 940.975 526.018 932.061 526.72C923.447 527.421 923.046 527.521 923.046 529.825C923.046 532.229 922.946 532.229 912.029 532.229C903.415 532.229 898.508 531.628 890.194 529.625C884.285 528.122 879.077 526.619 878.676 526.219C878.175 525.818 877.775 521.009 877.674 515.6C877.574 509.79 877.073 505.682 876.473 505.682C875.972 505.682 866.957 506.284 856.441 507.085C837.811 508.387 837.31 508.487 831 511.793C824.69 515.299 824.69 515.299 811.97 515.099L799.15 514.999L790.035 520.208C781.221 525.117 780.821 525.517 780.821 528.823V532.229H640.098C561.774 532.229 499.375 531.829 499.375 531.328C499.375 530.727 510.893 522.612 522.712 515.099C523.212 514.698 524.014 512.094 524.514 509.189C525.216 504.38 526.017 503.278 536.534 492.359C546.75 481.74 548.853 480.037 559.57 474.027C567.483 469.719 571.088 467.114 570.487 466.513C569.786 465.812 572.29 462.907 577.899 457.698L586.413 449.984L589.818 451.487C591.721 452.288 593.624 453.39 593.924 453.991C594.325 454.592 595.727 453.791 597.53 451.787L600.335 448.582L594.726 447.079C589.317 445.676 589.017 445.376 588.716 442.27C588.215 437.462 590.719 435.058 596.228 435.058C601.837 435.058 603.94 436.16 605.543 440.167C606.645 442.771 607.246 443.172 609.549 442.671C611.052 442.371 614.657 441.87 617.562 441.469C622.169 440.868 622.87 440.467 623.772 437.963C624.573 435.458 625.174 435.158 627.378 435.659C631.284 436.661 631.584 436.861 631.584 439.866C631.584 441.669 630.583 443.473 628.379 445.276C625.475 447.58 625.274 448.181 626.075 450.685C626.977 453.09 628.279 453.791 637.093 456.596C649.513 460.402 650.614 460.302 650.614 454.793V450.585L643.303 447.379C632.085 442.471 631.584 439.566 641.5 436.56L647.61 434.757V422.035L633.587 413.019V403.001C633.587 396.89 633.187 392.983 632.586 392.983C631.985 392.983 627.478 394.987 622.57 397.491C617.662 399.996 612.153 401.999 610.451 401.999H607.346L608.748 385.17L583.107 379.159L577.899 383.166L572.591 387.173L571.99 412.217L562.775 415.123L553.46 418.128L549.254 426.342C544.947 434.557 544.947 434.557 540.74 434.857L536.433 435.158V425.24C536.433 413.82 537.235 414.722 525.917 413.52C521.91 413.019 518.204 411.817 514.799 409.813C509.891 406.908 509.491 406.307 507.588 399.795L505.584 392.883L517.303 386.071C523.713 382.264 531.425 377.857 534.43 376.154C540.54 372.848 553.16 368.64 554.562 369.542C555.063 369.843 555.464 371.345 555.464 372.948C555.464 377.857 556.365 378.959 560.471 378.959C563.777 378.959 564.378 378.558 565.379 375.953C566.18 373.349 566.882 372.948 569.886 372.948C574.093 372.948 575.395 371.445 572.491 369.943C571.188 369.241 570.487 367.839 570.487 366.036C570.487 363.331 570.788 363.131 576.196 362.53C581.505 361.929 582.306 361.428 586.112 357.12L590.219 352.412L602.538 350.809L614.758 349.206L620.166 353.714C623.171 356.118 625.374 358.422 625.174 358.823C624.974 359.124 619.064 362.329 612.153 365.936C605.242 369.542 599.533 372.748 599.533 373.048C599.533 373.649 632.486 381.363 632.986 380.862C633.087 380.662 634.088 378.157 635.19 375.452L637.193 370.444L652.618 369.843L655.222 365.335C656.724 362.83 657.525 360.526 657.225 360.125C656.824 359.725 654.621 358.923 652.317 358.422L648.11 357.32L647.61 350.609L647.109 343.797L630.182 336.383L613.255 328.87L601.336 330.273C591.521 331.475 588.416 332.376 583.208 335.081L576.998 338.387L577.398 347.102L577.699 355.918L574.894 355.417C573.292 355.117 569.987 354.515 567.483 354.115C563.076 353.414 562.975 353.313 562.074 348.405L561.173 343.496L567.483 337.786L573.793 332.176L562.174 331.375C548.953 330.573 544.346 331.475 542.543 335.482C540.64 339.689 541.141 340.691 545.548 341.392L549.654 342.094L549.053 346.201C548.653 348.405 548.152 350.609 547.851 351.109C547.551 351.51 544.947 351.911 542.142 351.911C534.831 351.911 532.527 352.712 530.824 356.018L529.322 358.923H518.505C506.185 358.923 506.386 359.023 506.386 350.108V345.9H522.712L529.522 339.389L536.333 332.777L532.828 331.174L529.422 329.471L524.615 334.18C519.507 339.289 518.004 339.589 507.988 338.287C503.581 337.686 502.98 337.185 498.774 331.274L494.166 324.863H473.333L463.217 332.376L453.001 339.789L462.416 340.09C471.631 340.391 471.831 340.391 472.732 343.095C473.534 345.399 473.333 346.301 471.33 348.305L469.026 350.809L489.859 351.41L491.863 355.117C492.964 357.12 493.565 359.023 493.265 359.424C492.864 359.725 487.155 359.725 480.445 359.324C469.728 358.723 468.325 358.422 468.325 356.82C468.325 353.914 465.821 352.312 459.111 351.009C455.605 350.308 450.798 348.705 448.394 347.303C444.688 345.299 442.685 344.899 435.073 344.899C429.965 344.899 426.359 344.498 426.659 343.997C428.863 340.491 466.823 317.751 484.05 309.736C525.015 290.502 561.773 280.785 614.056 275.376C622.971 274.474 672.649 275.776 683.166 277.179ZM447.292 363.131C447.192 364.934 446.391 367.438 445.389 368.64C443.686 370.744 442.585 370.945 434.271 370.945H425.157L425.457 366.637C425.758 362.63 425.958 362.429 429.263 362.129C431.166 361.929 433.17 361.328 433.771 360.827C434.271 360.326 437.476 359.925 440.982 359.925H447.292V363.131ZM447.292 383.867V387.674L441.182 388.375C430.666 389.377 428.462 389.177 427.26 386.873C426.559 385.771 426.359 384.569 426.659 384.268C427.561 383.266 440.782 380.061 444.087 380.061C447.192 379.96 447.292 380.161 447.292 383.867ZM919.441 405.305L923.347 410.014L919.641 415.523L916.035 421.033H903.515C890.996 421.033 890.996 421.033 889.994 418.428C889.393 417.026 888.992 415.724 888.992 415.423C888.992 415.223 892.598 413.219 897.005 411.015L905.018 407.008V398.193L905.118 389.477L910.326 394.987C913.231 398.092 917.337 402.701 919.441 405.305ZM473.333 419.029C477.039 419.13 477.64 420.532 476.338 426.342C475.036 431.752 474.836 432.052 470.529 433.555C468.025 434.356 465.721 435.058 465.321 435.058C464.519 435.058 458.81 423.237 459.411 422.636C461.414 420.833 468.225 418.128 469.828 418.529C470.929 418.829 472.532 419.029 473.333 419.029ZM332.31 448.782C332.51 451.186 331.208 453.39 325.699 460.002C321.993 464.41 318.688 468.116 318.488 468.116C317.887 468.116 320.391 463.408 326.3 453.39C329.004 448.782 331.408 445.075 331.709 445.276C331.909 445.476 332.109 447.079 332.31 448.782ZM507.187 447.78C507.387 449.082 508.189 450.084 508.99 450.084C509.991 450.084 510.392 451.286 510.392 454.091V458.098H499.775C483.449 458.098 478.141 456.095 481.246 451.186C483.249 448.081 492.564 445.176 499.875 445.376C506.286 445.576 506.886 445.777 507.187 447.78ZM518.305 452.489C521.41 455.694 521.51 455.895 519.507 456.496C512.896 458.399 513.397 458.599 513.397 453.691C513.397 451.186 513.797 449.082 514.198 449.082C514.599 449.082 516.502 450.585 518.305 452.489ZM533.429 461.004C535.532 462.707 535.632 463.107 534.43 464.61C532.828 466.513 529.522 466.213 528.12 463.909C527.319 462.707 527.419 461.805 528.32 460.703C530.023 458.699 530.324 458.699 533.429 461.004ZM500.376 460.703C500.376 461.504 485.252 482.141 484.751 482.141C484.451 482.141 482.848 481.44 481.246 480.538C478.341 479.136 478.241 478.835 478.942 474.327C479.443 470.52 480.445 468.717 484.15 464.81C488.658 460.302 488.958 460.102 494.567 460.102C497.772 460.102 500.376 460.402 500.376 460.703ZM520.408 464.009C520.408 467.415 519.907 468.216 517.203 469.919C515.4 471.021 512.395 472.123 510.693 472.424L507.387 473.025V460.102H520.408V464.009ZM531.425 470.42C537.735 472.524 537.936 472.724 537.936 476.13V479.636L531.926 479.937C526.217 480.238 525.816 480.037 524.114 477.232C522.111 473.826 521.81 468.116 523.713 468.216C524.314 468.216 527.82 469.218 531.425 470.42ZM969.32 482.642C971.523 487.35 973.226 491.357 973.026 491.557C972.825 491.758 970.221 492.259 967.417 492.659L962.108 493.361V484.946C962.108 477.633 963.01 474.127 964.813 474.127C965.013 474.127 967.016 477.933 969.32 482.642ZM517.403 479.035C517.403 484.645 513.096 488.151 506.286 488.151C500.777 488.151 499.976 487.25 501.177 482.642C501.778 480.538 502.68 479.536 504.483 479.336C505.785 479.136 507.387 478.434 507.888 477.733C509.19 476.03 511.293 475.329 514.699 475.229C517.203 475.128 517.403 475.429 517.403 479.035ZM305.066 507.987V517.804L312.578 521.51C319.79 525.017 320.09 525.317 320.09 528.723V532.229H290.944L291.645 529.925C292.146 528.222 300.359 505.783 302.763 499.572C304.165 495.865 305.066 499.071 305.066 507.987ZM339.12 530.727C339.12 531.829 338.019 532.229 335.214 532.229C331.408 532.229 329.505 531.228 330.807 529.825C331.108 529.525 333.211 529.224 335.314 529.224C338.019 529.224 339.12 529.625 339.12 530.727ZM484.15 744.103C495.468 758.429 496.57 760.132 497.472 765.541L498.573 771.352L504.483 772.754C509.09 773.856 512.796 775.96 521.409 782.171L532.427 790.185V852.795L535.532 853.497C537.235 853.797 538.837 854.599 539.138 855.3C539.538 856.402 536.133 877.439 534.831 881.847C534.63 882.748 537.335 887.256 540.94 891.965L547.451 900.58L546.249 915.005L545.147 929.431L553.56 944.157C561.673 958.182 562.475 959.183 572.29 967.799L582.506 976.714L589.217 977.315C598.331 978.217 604.341 978.217 604.842 977.215C605.042 976.814 605.543 975.312 605.944 973.809C606.544 971.305 605.743 970.403 598.632 964.393C589.918 957.18 589.818 956.979 592.723 948.464C593.223 946.761 594.025 943.155 594.425 940.35L595.126 935.141L589.718 934.74C585.311 934.339 583.909 933.738 582.006 931.334C580.603 929.731 579.602 927.928 579.502 927.327C579.502 926.726 581.505 924.322 584.009 922.018C587.314 918.912 588.516 917.009 588.516 915.005C588.516 912.501 588.015 912 584.009 910.898C579.802 909.696 579.502 909.395 579.502 906.29C579.502 904.387 579.802 902.884 580.103 902.884C580.403 902.884 583.909 902.383 587.815 901.782C593.023 900.981 597.931 899.177 605.543 895.371C615.859 890.161 616.16 889.961 619.465 883.65C621.368 880.244 627.678 871.228 633.387 863.815C639.196 856.402 644.304 849.79 644.805 849.189C645.206 848.588 644.505 843.178 643.002 836.967L640.398 825.748L644.004 819.236L647.71 812.725L658.026 813.426L668.343 814.027L675.554 808.217C679.46 805.111 682.665 802.006 682.665 801.405C682.665 795.594 687.172 758.729 688.074 757.627C688.675 756.726 692.18 752.218 695.786 747.509C700.694 741.299 702.697 737.692 703.699 733.785L704.9 728.576H887.49L893.299 738.794L899.108 749.112L892.598 761.735C886.589 773.155 885.988 774.958 885.988 780.267C885.988 786.178 886.088 786.278 891.496 791.688L897.005 797.097V826.249L904.016 835.765L910.927 845.282L911.027 857.504V869.826H923.247L917.938 876.137C882.582 917.309 835.307 952.672 786.83 973.909C753.177 988.635 718.021 998.152 680.662 1002.66C659.128 1005.36 616.761 1005.06 595.026 1002.16C551.157 996.249 514.298 985.029 475.837 965.695C397.613 926.526 333.512 856.802 301.16 775.559C296.353 763.438 288.039 738.393 286.537 731.782L285.836 728.576H471.831L484.15 744.103Z" fill="#006AA8"/>
<path d="M815.776 398.293C812.371 398.994 810.668 399.996 809.466 401.999C806.361 407.309 807.263 409.312 814.775 414.321C823.789 420.332 825.492 425.942 818.38 426.042C814.975 426.142 814.074 427.344 813.372 433.455L812.571 439.365L836.409 438.163L840.215 433.856L844.121 429.548L840.716 428.246C838.913 427.444 836.409 425.942 835.107 424.739C830.9 420.833 826.093 411.616 824.39 404.203C823.388 400.096 822.186 397.091 821.586 397.091C820.884 397.191 818.28 397.692 815.776 398.293Z" fill="#006AA8"/>
<path d="M800.051 414.321C796.345 415.223 795.244 416.124 792.139 420.833C789.835 424.439 788.533 427.745 788.433 430.249L788.333 434.056H792.64C796.145 434.056 798.048 433.154 803.757 429.047C810.768 423.938 811.87 422.536 811.87 418.629C811.87 417.026 810.868 415.924 808.365 414.722C806.361 413.82 804.659 413.119 804.558 413.119C804.458 413.219 802.455 413.72 800.051 414.321Z" fill="#006AA8"/>
<path d="M608.748 460.603C607.746 462.807 606.945 463.107 602.538 463.107C598.131 463.107 597.53 463.408 597.53 465.211C597.53 472.223 609.75 471.823 610.751 464.81C610.951 463.308 611.953 462.506 614.056 462.106C615.859 461.805 617.161 460.903 617.362 459.801C617.662 458.399 616.961 458.098 613.756 458.098C610.551 458.098 609.649 458.599 608.748 460.603Z" fill="#006AA8"/>
<path d="M584.109 466.313C581.405 470.12 582.006 472.123 585.912 472.123C588.816 472.123 589.317 471.723 589.818 469.318C590.219 467.515 589.918 466.213 588.716 465.311C586.513 463.608 585.812 463.809 584.109 466.313Z" fill="#006AA8"/>
<rect x="260" y="533" width="760" height="196" fill="#006AA8"/>
<path fill-rule="evenodd" clip-rule="evenodd" d="M395 548C353.579 548 320 581.579 320 623V638C320 679.421 353.579 713 395 713H398C439.421 713 473 679.421 473 638V623C473 581.579 439.421 548 398 548H395ZM430 640.5V621.5C430 602.998 415.002 588 396.5 588C377.998 588 363 602.998 363 621.5V640.5C363 659.002 377.998 674 396.5 674C415.002 674 430 659.002 430 640.5Z" fill="white"/>
<path fill-rule="evenodd" clip-rule="evenodd" d="M567 548C525.579 548 492 581.579 492 623V638C492 679.421 525.579 713 567 713H570C611.421 713 645 679.421 645 638V623C645 581.579 611.421 548 570 548H567ZM602 640.5V621.5C602 602.998 587.002 588 568.5 588C549.998 588 535 602.998 535 621.5V640.5C535 659.002 549.998 674 568.5 674C587.002 674 602 659.002 602 640.5Z" fill="white"/>
<path d="M666.5 590L707 552.5H765C800 552.5 822.5 607.5 788 630.5C822.5 653.5 800 708.5 765 708.5H717.5V671.5H753C759.075 671.5 764 666.075 764 660C764 653.925 759.075 648.5 753 648.5H717.5V612.5H753C759.075 612.5 764 607.075 764 601C764 594.925 759.075 589.5 753 589.5H707.5L707 708.5H666.5L666.5 590Z" fill="white"/>
<path d="M827 590.5L867.5 553H957L918 590H868L867.5 709H827L827 590.5Z" fill="white"/>
</svg>
