<svg width="56" height="56" viewBox="0 0 56 56" fill="none" xmlns="http://www.w3.org/2000/svg">
<path d="M35.1806 6C39.5466 6 41.646 6.40542 43.8274 7.57204C45.8056 8.62998 47.37 10.1944 48.428 12.1726C49.5946 14.3539 50 16.4534 50 20.8194V35.1806C50 39.5466 49.5946 41.646 48.428 43.8274C47.37 45.8056 45.8056 47.37 43.8274 48.428C41.646 49.5946 39.5466 50 35.1806 50H20.8194C16.4534 50 14.3539 49.5946 12.1726 48.428C10.1944 47.37 8.62998 45.8056 7.57204 43.8274C6.40542 41.646 6 39.5466 6 35.1806V20.8194C6 16.4534 6.40542 14.3539 7.57204 12.1726C8.62998 10.1944 10.1944 8.62998 12.1726 7.57204C14.3539 6.40542 16.4534 6 20.8194 6H35.1806ZM35.1806 10H20.8194C17.0573 10 15.5816 10.285 14.059 11.0993C12.7779 11.7844 11.7844 12.7779 11.0993 14.059C10.285 15.5816 10 17.0573 10 20.8194V35.1806C10 38.9428 10.285 40.4184 11.0993 41.941C11.7844 43.2222 12.7779 44.2156 14.059 44.9008C15.5816 45.715 17.0573 46 20.8194 46H35.1806C38.9428 46 40.4184 45.715 41.941 44.9008C43.2222 44.2156 44.2156 43.2222 44.9008 41.941C45.715 40.4184 46 38.9428 46 35.1806V20.8194C46 17.0573 45.715 15.5816 44.9008 14.059C44.2156 12.7779 43.2222 11.7844 41.941 11.0993C40.4184 10.285 38.9428 10 35.1806 10Z" fill="black"/>
<path d="M29.518 36.66C20.493 36.66 15.0175 30.405 14.803 20H19.3739C19.5164 27.6432 22.9938 30.874 25.6596 31.54V20H30.04V26.6C32.6112 26.315 35.3024 23.311 36.207 20H40.5186C39.8286 24.0714 36.8988 27.0624 34.8286 28.3C36.9004 29.3006 40.2336 31.9226 41.5192 36.66H36.7802C35.7796 33.4932 33.3284 31.053 30.0416 30.72V36.66H29.518Z" fill="black"/>
</svg>
