<svg width="56" height="56" viewBox="0 0 56 56" fill="none" xmlns="http://www.w3.org/2000/svg">
<path d="M6 27.12C6 17.164 6 12.186 9.093 9.093C12.186 6 17.163 6 27.12 6H28.88C38.836 6 43.814 6 46.907 9.093C50 12.186 50 17.163 50 27.12V28.88C50 38.836 50 43.814 46.907 46.907C43.814 50 38.837 50 28.88 50H27.12C17.164 50 12.186 50 9.093 46.907C6 43.814 6 38.837 6 28.88V27.12Z" fill="#0077FF"/>
<path d="M29.412 37.699C19.383 37.699 13.663 30.824 13.425 19.384H18.448C18.613 27.78 22.317 31.337 25.25 32.07V19.384H29.98V26.625C32.877 26.314 35.92 23.014 36.946 19.384H41.676C40.888 23.857 37.588 27.157 35.242 28.514C37.588 29.614 41.347 32.492 42.777 37.699H37.57C36.452 34.215 33.665 31.52 29.98 31.154V37.699H29.412Z" fill="white"/>
</svg>
